<?xml version="1.0" encoding="UTF-8" standalone="no"?>
<svg xmlns="http://www.w3.org/2000/svg" width="64" height="64" viewBox="0 0 64 64">
  <!-- Background -->
  <rect x="4" y="4" width="56" height="56" rx="12" fill="#4285F4" />
  <rect x="6" y="6" width="52" height="52" rx="10" fill="#5C9DFF" />
  
  <!-- Price tag shape -->
  <path d="M20,16 L44,16 C46,16 48,18 48,20 L48,44 C48,46 46,48 44,48 L20,48 C18,48 16,46 16,44 L16,20 C16,18 18,16 20,16 Z" 
        fill="white" />
  
  <!-- Compare/sync symbol -->
  <path d="M24,26 L40,26 M24,32 L40,32 M24,38 L40,38" 
        stroke="#4285F4" stroke-width="3" stroke-linecap="round" />
  
  <!-- Arrow indicators -->
  <path d="M42,24 L45,26 L42,28" fill="none" stroke="#4285F4" stroke-width="2" stroke-linecap="round" stroke-linejoin="round" />
  <path d="M22,30 L19,32 L22,34" fill="none" stroke="#4285F4" stroke-width="2" stroke-linecap="round" stroke-linejoin="round" />
  <path d="M42,36 L45,38 L42,40" fill="none" stroke="#4285F4" stroke-width="2" stroke-linecap="round" stroke-linejoin="round" />
  
  <!-- Currency symbols -->
  <text x="28" y="27" font-family="Arial" font-size="6" font-weight="bold" fill="#4285F4">₩</text>
  <text x="28" y="39" font-family="Arial" font-size="6" font-weight="bold" fill="#4285F4">₩</text>
  <text x="34" y="33" font-family="Arial" font-size="8" font-weight="bold" fill="#4285F4">$</text>
  
  <!-- Subtle highlight -->
  <path d="M6,28 C6,15.85 15.85,6 28,6 L58,6 L58,28 C58,15.85 58,6 58,6" fill="rgba(255,255,255,0.15)" />
</svg> 