<?xml version="1.0" encoding="UTF-8" standalone="no"?>
<svg xmlns="http://www.w3.org/2000/svg" viewBox="0 0 240 60">
  <defs>
    <linearGradient id="gradient1" x1="0%" y1="0%" x2="100%" y2="100%">
      <stop offset="0%" stop-color="#6366F1" />
      <stop offset="100%" stop-color="#8B5CF6" />
    </linearGradient>
    <linearGradient id="gradient2" x1="0%" y1="0%" x2="100%" y2="100%">
      <stop offset="0%" stop-color="#EC4899" />
      <stop offset="100%" stop-color="#F472B6" />
    </linearGradient>
    <filter id="shadow" x="-20%" y="-20%" width="140%" height="140%">
      <feDropShadow dx="0" dy="1" stdDeviation="1" flood-color="#000" flood-opacity="0.3"/>
    </filter>
  </defs>
  
  <!-- Icon part -->
  <g transform="translate(10, 10)">
    <rect x="0" y="0" width="40" height="40" rx="10" fill="url(#gradient1)" filter="url(#shadow)"/>
    <circle cx="20" cy="20" r="12" fill="white" opacity="0.2"/>
    <path d="M12,16 L28,16 C30.2,16 32,17.8 32,20 L32,32 C32,34.2 30.2,36 28,36 L12,36 C9.8,36 8,34.2 8,32 L8,20 C8,17.8 9.8,16 12,16 Z" fill="white"/>
    <rect x="10" y="20" width="20" height="3" rx="1.5" fill="#6366F1"/>
    <rect x="10" y="26" width="20" height="3" rx="1.5" fill="#6366F1"/>
    <circle cx="32" cy="10" r="7" fill="url(#gradient2)" filter="url(#shadow)"/>
    <text x="32" y="13" text-anchor="middle" font-family="Arial, sans-serif" font-weight="bold" font-size="10" fill="white">$</text>
  </g>
  
  <!-- Text part -->
  <text x="65" y="35" font-family="'Segoe UI', Arial, sans-serif" font-weight="bold" font-size="22" fill="#6366F1">상품 가격 비교 시스템</text>
</svg> 