<?xml version="1.0" encoding="UTF-8" standalone="no"?>
<svg xmlns="http://www.w3.org/2000/svg" width="64" height="64" viewBox="0 0 24 24">
  <defs>
    <linearGradient id="reportGradient" x1="0%" y1="0%" x2="100%" y2="100%">
      <stop offset="0%" stop-color="#7B61FF" />
      <stop offset="100%" stop-color="#5B41DF" />
    </linearGradient>
    <filter id="reportShadow" x="-20%" y="-20%" width="140%" height="140%">
      <feGaussianBlur in="SourceAlpha" stdDeviation="0.5" />
      <feOffset dx="0" dy="0.5" result="offsetblur" />
      <feComponentTransfer>
        <feFuncA type="linear" slope="0.3" />
      </feComponentTransfer>
      <feMerge>
        <feMergeNode />
        <feMergeNode in="SourceGraphic" />
      </feMerge>
    </filter>
  </defs>

  <!-- Base document -->
  <path d="M14,2 L20,8 L20,20 C20,21.1 19.1,22 18,22 L6,22 C4.9,22 4,21.1 4,20 L4,4 C4,2.9 4.9,2 6,2 L14,2 Z" 
        fill="url(#reportGradient)" filter="url(#reportShadow)" />
        
  <!-- Folded corner -->
  <path d="M14,2 L14,8 L20,8 Z" fill="#9780FF" />
  
  <!-- Document inner body with chart -->
  <rect x="6" y="10" width="12" height="9" rx="1" fill="white" />
  
  <!-- Chart elements -->
  <rect x="7" y="15" width="2" height="3" fill="#4285F4" />
  <rect x="10" y="13" width="2" height="5" fill="#5C9DFF" />
  <rect x="13" y="11" width="2" height="7" fill="#80B4FF" />
  
  <!-- Line chart -->
  <path d="M7,12 L9,14 L11,11 L15,12 L17,13" 
        stroke="#FF4081" stroke-width="1" fill="none" stroke-linecap="round" />
  
  <!-- Paper header -->
  <rect x="6" y="4" width="8" height="1" rx="0.5" fill="white" opacity="0.7" />
  <rect x="6" y="6" width="6" height="1" rx="0.5" fill="white" opacity="0.7" />
</svg> 